<?xml version="1.0" encoding="UTF-8" standalone="no"?>
<!-- Created with Inkscape (http://www.inkscape.org/) -->

<svg
   xmlns:dc="http://purl.org/dc/elements/1.1/"
   xmlns:cc="http://creativecommons.org/ns#"
   xmlns:rdf="http://www.w3.org/1999/02/22-rdf-syntax-ns#"
   xmlns:svg="http://www.w3.org/2000/svg"
   xmlns="http://www.w3.org/2000/svg"
   xmlns:sodipodi="http://sodipodi.sourceforge.net/DTD/sodipodi-0.dtd"
   xmlns:inkscape="http://www.inkscape.org/namespaces/inkscape"
   width="48pt"
   height="48pt"
   viewBox="0 0 16.933334 16.933333"
   version="1.1"
   id="svg979"
   inkscape:version="0.92.4 (5da689c313, 2019-01-14)"
   sodipodi:docname="2 - Eggs.svg"
   inkscape:export-filename="E:\TR Design Studio Creative\Project Design\TR Creative Design\Icon Design\Project Hiring\Icon Icons\Project - 001\001 - Agriculture And Farming\Flat\Export\2 - Eggs.png"
   inkscape:export-xdpi="768"
   inkscape:export-ydpi="768">
  <defs
     id="defs973" />
  <sodipodi:namedview
     id="base"
     pagecolor="#ffffff"
     bordercolor="#666666"
     borderopacity="1.0"
     inkscape:pageopacity="0.0"
     inkscape:pageshadow="2"
     inkscape:zoom="6.0435533"
     inkscape:cx="32"
     inkscape:cy="32"
     inkscape:document-units="pt"
     inkscape:current-layer="layer1"
     showgrid="false"
     units="pt"
     inkscape:window-width="1366"
     inkscape:window-height="716"
     inkscape:window-x="-8"
     inkscape:window-y="-8"
     inkscape:window-maximized="1"
     inkscape:snap-bbox="true"
     inkscape:bbox-nodes="true"
     inkscape:snap-nodes="false"
     showguides="false">
    <inkscape:grid
       type="xygrid"
       id="grid1526" />
    <sodipodi:guide
       position="0.97013909,15.963209"
       orientation="56.666615,0"
       id="guide1528"
       inkscape:locked="false" />
    <sodipodi:guide
       position="0.97013909,0.97016731"
       orientation="0,56.666667"
       id="guide1530"
       inkscape:locked="false" />
    <sodipodi:guide
       position="15.963195,0.97016731"
       orientation="-56.666615,0"
       id="guide1532"
       inkscape:locked="false" />
    <sodipodi:guide
       position="15.963195,15.963209"
       orientation="0,-56.666667"
       id="guide1534"
       inkscape:locked="false" />
  </sodipodi:namedview>
  <metadata
     id="metadata976">
    <rdf:RDF>
      <cc:Work
         rdf:about="">
        <dc:format>image/svg+xml</dc:format>
        <dc:type
           rdf:resource="http://purl.org/dc/dcmitype/StillImage" />
        <dc:title></dc:title>
      </cc:Work>
    </rdf:RDF>
  </metadata>
  <g
     inkscape:label="Layer 1"
     inkscape:groupmode="layer"
     id="layer1"
     transform="translate(0,-280.06668)">
    <g
       transform="matrix(1.2319763,0,0,1.2319763,27.763217,-15.299172)"
       style="display:inline;stroke-width:0.81170392"
       id="g2186">
      <g
         id="g1906"
         style="stroke-width:0.81170392">
        <path
           style="color:#000000;font-style:normal;font-variant:normal;font-weight:normal;font-stretch:normal;font-size:medium;line-height:normal;font-family:sans-serif;font-variant-ligatures:normal;font-variant-position:normal;font-variant-caps:normal;font-variant-numeric:normal;font-variant-alternates:normal;font-feature-settings:normal;text-indent:0;text-align:start;text-decoration:none;text-decoration-line:none;text-decoration-style:solid;text-decoration-color:#000000;letter-spacing:normal;word-spacing:normal;text-transform:none;writing-mode:lr-tb;direction:ltr;text-orientation:mixed;dominant-baseline:auto;baseline-shift:baseline;text-anchor:start;white-space:normal;shape-padding:0;clip-rule:nonzero;display:inline;overflow:visible;visibility:visible;opacity:1;isolation:auto;mix-blend-mode:normal;color-interpolation:sRGB;color-interpolation-filters:linearRGB;solid-color:#000000;solid-opacity:1;vector-effect:none;fill:#ffbf89;fill-opacity:1;fill-rule:nonzero;stroke:none;stroke-width:0.42952693;stroke-linecap:round;stroke-linejoin:round;stroke-miterlimit:4;stroke-dasharray:none;stroke-dashoffset:0;stroke-opacity:1;color-rendering:auto;image-rendering:auto;shape-rendering:auto;text-rendering:auto;enable-background:accumulate"
           d="m -20.980469,248.43945 a 0.26460996,0.26460996 0 0 0 -0.238281,0.29297 l 0.265625,2.38086 c 0.02789,0.25101 0.237672,0.5 0.527344,0.5 h 9.52539 c 0.28966,0 0.499451,-0.24899 0.527344,-0.5 l 0.263672,-2.38086 a 0.26460996,0.26460996 0 0 0 -0.261719,-0.29297 h -10.583984 a 0.26460996,0.26460996 0 0 0 -0.02539,0 z"
           id="path1856"
           inkscape:connector-curvature="0" />
        <path
           inkscape:connector-curvature="0"
           id="path1459"
           d="m -20.980848,248.43945 a 0.26460995,0.26460995 0 0 0 -0.238228,0.293 l 0.08526,0.76533 h 9.704317 a 0.26460995,0.26460995 0 0 1 0.261483,0.29301 l -0.201538,1.82263 h 0.469222 c 0.28966,0 0.499206,-0.24922 0.527099,-0.50023 l 0.26355,-2.38074 a 0.26460995,0.26460995 0 0 0 -0.261483,-0.293 h -10.58385 a 0.26460995,0.26460995 0 0 0 -0.02582,0 z"
           style="color:#000000;font-style:normal;font-variant:normal;font-weight:normal;font-stretch:normal;font-size:medium;line-height:normal;font-family:sans-serif;font-variant-ligatures:normal;font-variant-position:normal;font-variant-caps:normal;font-variant-numeric:normal;font-variant-alternates:normal;font-feature-settings:normal;text-indent:0;text-align:start;text-decoration:none;text-decoration-line:none;text-decoration-style:solid;text-decoration-color:#000000;letter-spacing:normal;word-spacing:normal;text-transform:none;writing-mode:lr-tb;direction:ltr;text-orientation:mixed;dominant-baseline:auto;baseline-shift:baseline;text-anchor:start;white-space:normal;shape-padding:0;clip-rule:nonzero;display:inline;overflow:visible;visibility:visible;opacity:1;isolation:auto;mix-blend-mode:normal;color-interpolation:sRGB;color-interpolation-filters:linearRGB;solid-color:#000000;solid-opacity:1;vector-effect:none;fill:#ff9f67;fill-opacity:1;fill-rule:nonzero;stroke:none;stroke-width:0.42952693;stroke-linecap:round;stroke-linejoin:round;stroke-miterlimit:4;stroke-dasharray:none;stroke-dashoffset:0;stroke-opacity:1;color-rendering:auto;image-rendering:auto;shape-rendering:auto;text-rendering:auto;enable-background:accumulate" />
        <path
           sodipodi:nodetypes="ccccccccccccccccccccccccccccccccccccccccccccccccccc"
           style="color:#000000;font-style:normal;font-variant:normal;font-weight:normal;font-stretch:normal;font-size:medium;line-height:normal;font-family:sans-serif;font-variant-ligatures:normal;font-variant-position:normal;font-variant-caps:normal;font-variant-numeric:normal;font-variant-alternates:normal;font-feature-settings:normal;text-indent:0;text-align:start;text-decoration:none;text-decoration-line:none;text-decoration-style:solid;text-decoration-color:#000000;letter-spacing:normal;word-spacing:normal;text-transform:none;writing-mode:lr-tb;direction:ltr;text-orientation:mixed;dominant-baseline:auto;baseline-shift:baseline;text-anchor:start;white-space:normal;shape-padding:0;clip-rule:nonzero;display:inline;overflow:visible;visibility:visible;opacity:1;isolation:auto;mix-blend-mode:normal;color-interpolation:sRGB;color-interpolation-filters:linearRGB;solid-color:#000000;solid-opacity:1;vector-effect:none;fill:#c88762;fill-opacity:1;fill-rule:nonzero;stroke:none;stroke-width:0.42952693;stroke-linecap:round;stroke-linejoin:round;stroke-miterlimit:4;stroke-dasharray:none;stroke-dashoffset:0;stroke-opacity:1;color-rendering:auto;image-rendering:auto;shape-rendering:auto;text-rendering:auto;enable-background:accumulate"
           d="m -20.658171,248.96831 0.05064,0.45733 0.60048,0.60048 c -0.160412,0.16042 -0.320728,0.32111 -0.481107,0.48163 0.02107,0.1854 0.06256,0.57769 0.06256,0.57769 h 0.109554 c 0.227917,-0.2282 0.455833,-0.45643 0.683679,-0.68471 l 0.684713,0.68471 h 1.276408 l 0.685229,-0.68523 0.684713,0.68523 h 1.276408 l 0.684713,-0.68471 0.684196,0.68471 h 1.277441 l 0.684713,-0.68523 0.685746,0.68523 h 0.107487 l 0.06256,-0.57666 -0.482141,-0.48214 0.602031,-0.60255 0.05013,-0.45578 h -0.343132 l -0.683679,0.68368 -0.683163,-0.68368 H -13.6575 l -0.683162,0.68368 -0.68368,-0.68368 H -16.3023 l -0.683679,0.68368 -0.684196,-0.68368 h -0.748275 l 1.058334,1.05781 -0.949296,0.9493 -0.94878,-0.9493 c 0.08091,-0.081 0.161929,-0.16193 0.242879,-0.24288 0.170979,-0.16815 0.04802,-0.4588 -0.191719,-0.4532 -0.06928,0.002 -0.135149,0.0304 -0.183451,0.0801 -0.08066,0.0807 -0.161222,0.16122 -0.241846,0.24185 l -0.683162,-0.68368 z m 4.995044,0.10903 0.948263,0.94878 -0.948263,0.9493 -0.948779,-0.9493 z m 2.645834,5.3e-4 0.948779,0.94775 -0.949296,0.9493 -0.948262,-0.94827 z"
           id="path1058"
           inkscape:connector-curvature="0" />
      </g>
      <g
         transform="translate(0,5.2916667)"
         id="g2012"
         style="stroke-width:0.81170392">
        <path
           style="color:#000000;font-style:normal;font-variant:normal;font-weight:normal;font-stretch:normal;font-size:medium;line-height:normal;font-family:sans-serif;font-variant-ligatures:normal;font-variant-position:normal;font-variant-caps:normal;font-variant-numeric:normal;font-variant-alternates:normal;font-feature-settings:normal;text-indent:0;text-align:start;text-decoration:none;text-decoration-line:none;text-decoration-style:solid;text-decoration-color:#000000;letter-spacing:normal;word-spacing:normal;text-transform:none;writing-mode:lr-tb;direction:ltr;text-orientation:mixed;dominant-baseline:auto;baseline-shift:baseline;text-anchor:start;white-space:normal;shape-padding:0;clip-rule:nonzero;display:inline;overflow:visible;visibility:visible;opacity:1;isolation:auto;mix-blend-mode:normal;color-interpolation:sRGB;color-interpolation-filters:linearRGB;solid-color:#000000;solid-opacity:1;vector-effect:none;fill:#ffdea5;fill-opacity:1;fill-rule:nonzero;stroke:none;stroke-width:0.42952693;stroke-linecap:round;stroke-linejoin:round;stroke-miterlimit:4;stroke-dasharray:none;stroke-dashoffset:0;stroke-opacity:1;color-rendering:auto;image-rendering:auto;shape-rendering:auto;text-rendering:auto;enable-background:accumulate"
           d="m -15.796875,236.3392 c -0.796595,-5e-5 -1.470134,0.54349 -1.818359,1.30078 a 0.26460996,0.26460996 0 0 0 0.101562,0.33594 c 0.44405,0.26949 0.798133,0.81992 0.882813,1.51367 a 0.26460996,0.26460996 0 0 0 0.345703,0.21875 c 0.268767,-0.0884 0.614138,-0.1632 0.947265,-0.008 a 0.26460996,0.26460996 0 0 0 0.375,-0.20899 c 0.08472,-0.69406 0.438727,-1.24654 0.882813,-1.51562 a 0.26460996,0.26460996 0 0 0 0.103516,-0.33789 c -0.348307,-0.7571 -1.023916,-1.29888 -1.820313,-1.29883 z"
           id="path1676"
           inkscape:connector-curvature="0" />
        <path
           style="color:#000000;font-style:normal;font-variant:normal;font-weight:normal;font-stretch:normal;font-size:medium;line-height:normal;font-family:sans-serif;font-variant-ligatures:normal;font-variant-position:normal;font-variant-caps:normal;font-variant-numeric:normal;font-variant-alternates:normal;font-feature-settings:normal;text-indent:0;text-align:start;text-decoration:none;text-decoration-line:none;text-decoration-style:solid;text-decoration-color:#000000;letter-spacing:normal;word-spacing:normal;text-transform:none;writing-mode:lr-tb;direction:ltr;text-orientation:mixed;dominant-baseline:auto;baseline-shift:baseline;text-anchor:start;white-space:normal;shape-padding:0;clip-rule:nonzero;display:inline;overflow:visible;visibility:visible;opacity:1;isolation:auto;mix-blend-mode:normal;color-interpolation:sRGB;color-interpolation-filters:linearRGB;solid-color:#000000;solid-opacity:1;vector-effect:none;fill:#ffc576;fill-opacity:1;fill-rule:nonzero;stroke:none;stroke-width:0.42952693;stroke-linecap:round;stroke-linejoin:round;stroke-miterlimit:4;stroke-dasharray:none;stroke-dashoffset:0;stroke-opacity:1;color-rendering:auto;image-rendering:auto;shape-rendering:auto;text-rendering:auto;enable-background:accumulate"
           d="m -15.797123,236.33921 c -0.09007,-1e-5 -0.177954,0.009 -0.264583,0.0222 0.679784,0.10493 1.247052,0.60491 1.555977,1.27641 0.05677,0.12265 0.01198,0.26837 -0.103869,0.33797 -0.444086,0.26907 -0.797914,0.8216 -0.882634,1.51566 -0.006,0.0518 -0.02724,0.10075 -0.06098,0.14056 0.0717,0.0143 0.14352,0.0349 0.214974,0.0682 0.163537,0.0767 0.354153,-0.0294 0.375171,-0.20878 0.08472,-0.69406 0.438547,-1.24659 0.882633,-1.51566 0.115853,-0.0696 0.160638,-0.21532 0.10387,-0.33797 -0.348307,-0.7571 -1.024164,-1.29868 -1.820561,-1.29863 z"
           id="path1791"
           inkscape:connector-curvature="0"
           sodipodi:nodetypes="cccccccccccc" />
        <path
           style="color:#000000;font-style:normal;font-variant:normal;font-weight:normal;font-stretch:normal;font-size:medium;line-height:normal;font-family:sans-serif;font-variant-ligatures:normal;font-variant-position:normal;font-variant-caps:normal;font-variant-numeric:normal;font-variant-alternates:normal;font-feature-settings:normal;text-indent:0;text-align:start;text-decoration:none;text-decoration-line:none;text-decoration-style:solid;text-decoration-color:#000000;letter-spacing:normal;word-spacing:normal;text-transform:none;writing-mode:lr-tb;direction:ltr;text-orientation:mixed;dominant-baseline:auto;baseline-shift:baseline;text-anchor:start;white-space:normal;shape-padding:0;clip-rule:nonzero;display:inline;overflow:visible;visibility:visible;opacity:1;isolation:auto;mix-blend-mode:normal;color-interpolation:sRGB;color-interpolation-filters:linearRGB;solid-color:#000000;solid-opacity:1;vector-effect:none;fill:#fff4e0;fill-opacity:1;fill-rule:nonzero;stroke:none;stroke-width:0.42952693;stroke-linecap:round;stroke-linejoin:round;stroke-miterlimit:4;stroke-dasharray:none;stroke-dashoffset:0;stroke-opacity:1;color-rendering:auto;image-rendering:auto;shape-rendering:auto;text-rendering:auto;enable-background:accumulate"
           d="m -15.658203,237.13281 c -0.342873,-1e-5 -0.656765,0.14652 -0.878906,0.37891 a 0.26460996,0.26460996 0 1 0 0.382812,0.36523 c 0.129245,-0.13521 0.30282,-0.21485 0.496094,-0.21484 a 0.26465,0.26465 0 1 0 0,-0.5293 z"
           id="path1127"
           inkscape:connector-curvature="0" />
      </g>
      <g
         id="g2028"
         style="stroke-width:0.81170392">
        <path
           sodipodi:nodetypes="ccccccccccc"
           style="color:#000000;font-style:normal;font-variant:normal;font-weight:normal;font-stretch:normal;font-size:medium;line-height:normal;font-family:sans-serif;font-variant-ligatures:normal;font-variant-position:normal;font-variant-caps:normal;font-variant-numeric:normal;font-variant-alternates:normal;font-feature-settings:normal;text-indent:0;text-align:start;text-decoration:none;text-decoration-line:none;text-decoration-style:solid;text-decoration-color:#000000;letter-spacing:normal;word-spacing:normal;text-transform:none;writing-mode:lr-tb;direction:ltr;text-orientation:mixed;dominant-baseline:auto;baseline-shift:baseline;text-anchor:start;white-space:normal;shape-padding:0;clip-rule:nonzero;display:inline;overflow:visible;visibility:visible;opacity:1;isolation:auto;mix-blend-mode:normal;color-interpolation:sRGB;color-interpolation-filters:linearRGB;solid-color:#000000;solid-opacity:1;vector-effect:none;fill:#f9f9f9;fill-opacity:1;fill-rule:nonzero;stroke:none;stroke-width:0.42952693;stroke-linecap:round;stroke-linejoin:round;stroke-miterlimit:4;stroke-dasharray:none;stroke-dashoffset:0;stroke-opacity:1;color-rendering:auto;image-rendering:auto;shape-rendering:auto;text-rendering:auto;enable-background:accumulate"
           d="m -20.255859,245.09767 c -3e-6,6.7e-4 -3e-6,0.001 0,0.002 8.52e-4,0.0982 0.0075,0.19555 0.01758,0.29297 0.02555,0.23876 0.330311,0.32279 0.474609,0.13086 0.302635,-0.40892 0.708255,-0.62446 1.123047,-0.625 0.45301,7.4e-4 0.893869,0.25757 1.199219,0.73633 0.104141,0.16218 0.341171,0.16218 0.445312,0 0.192434,-0.3011 0.448363,-0.52154 0.730469,-0.63868 0.108854,-0.0458 0.1742,-0.15814 0.160156,-0.27539 -0.148522,-1.21678 -1.00169,-2.1704 -2.125022,-2.1712 -1.123332,-8e-4 -2.025246,1.17287 -2.02537,2.54811 z"
           id="path1635"
           inkscape:connector-curvature="0" />
        <path
           style="color:#000000;font-style:normal;font-variant:normal;font-weight:normal;font-stretch:normal;font-size:medium;line-height:normal;font-family:sans-serif;font-variant-ligatures:normal;font-variant-position:normal;font-variant-caps:normal;font-variant-numeric:normal;font-variant-alternates:normal;font-feature-settings:normal;text-indent:0;text-align:start;text-decoration:none;text-decoration-line:none;text-decoration-style:solid;text-decoration-color:#000000;letter-spacing:normal;word-spacing:normal;text-transform:none;writing-mode:lr-tb;direction:ltr;text-orientation:mixed;dominant-baseline:auto;baseline-shift:baseline;text-anchor:start;white-space:normal;shape-padding:0;clip-rule:nonzero;display:inline;overflow:visible;visibility:visible;opacity:1;isolation:auto;mix-blend-mode:normal;color-interpolation:sRGB;color-interpolation-filters:linearRGB;solid-color:#000000;solid-opacity:1;vector-effect:none;fill:#e9e9e9;fill-opacity:1;fill-rule:nonzero;stroke:none;stroke-width:0.42952693;stroke-linecap:round;stroke-linejoin:round;stroke-miterlimit:4;stroke-dasharray:none;stroke-dashoffset:0;stroke-opacity:1;color-rendering:auto;image-rendering:auto;shape-rendering:auto;text-rendering:auto;enable-background:accumulate"
           d="m -18.167968,242.54883 c -0.09061,0 -0.179115,0.009 -0.266133,0.0222 0.93602,0.14393 1.663379,1.03507 1.799373,2.14922 0.01406,0.11728 -0.05131,0.22967 -0.160197,0.27544 -0.262879,0.10915 -0.500591,0.31112 -0.687813,0.58135 0.01347,0.0196 0.02835,0.037 0.04134,0.0574 0.104122,0.16232 0.341329,0.16232 0.445451,0 0.192434,-0.3011 0.448082,-0.52159 0.730188,-0.63872 0.10889,-0.0458 0.174259,-0.15816 0.160197,-0.27544 -0.148522,-1.21678 -1.001597,-2.16997 -2.062407,-2.17144 z"
           id="path1784"
           inkscape:connector-curvature="0"
           sodipodi:nodetypes="ccccccccccc" />
        <path
           style="color:#000000;font-style:normal;font-variant:normal;font-weight:normal;font-stretch:normal;font-size:medium;line-height:normal;font-family:sans-serif;font-variant-ligatures:normal;font-variant-position:normal;font-variant-caps:normal;font-variant-numeric:normal;font-variant-alternates:normal;font-feature-settings:normal;text-indent:0;text-align:start;text-decoration:none;text-decoration-line:none;text-decoration-style:solid;text-decoration-color:#000000;letter-spacing:normal;word-spacing:normal;text-transform:none;writing-mode:lr-tb;direction:ltr;text-orientation:mixed;dominant-baseline:auto;baseline-shift:baseline;text-anchor:start;white-space:normal;shape-padding:0;clip-rule:nonzero;display:inline;overflow:visible;visibility:visible;opacity:1;isolation:auto;mix-blend-mode:normal;color-interpolation:sRGB;color-interpolation-filters:linearRGB;solid-color:#000000;solid-opacity:1;vector-effect:none;fill:#e9e9e9;fill-opacity:1;fill-rule:nonzero;stroke:none;stroke-width:0.42952693;stroke-linecap:round;stroke-linejoin:round;stroke-miterlimit:4;stroke-dasharray:none;stroke-dashoffset:0;stroke-opacity:1;color-rendering:auto;image-rendering:auto;shape-rendering:auto;text-rendering:auto;enable-background:accumulate"
           d="m -16.225366,244.17842 c -0.604976,0.062 -1.130727,0.43542 -1.470711,0.96738 a 0.26460995,0.26460995 0 0 0 -0.04134,0.13333 c 0.107631,0.10033 0.208053,0.21747 0.296106,0.35553 a 0.26460995,0.26460995 0 0 0 0.44545,0 c 0.192434,-0.3011 0.448082,-0.52158 0.730189,-0.63872 a 0.26460995,0.26460995 0 0 0 0.160196,-0.27544 c -0.02299,-0.18836 -0.06497,-0.36888 -0.11989,-0.54208 z"
           id="path1801"
           inkscape:connector-curvature="0" />
      </g>
      <g
         id="g2001"
         style="stroke-width:0.81170392">
        <path
           style="color:#000000;font-style:normal;font-variant:normal;font-weight:normal;font-stretch:normal;font-size:medium;line-height:normal;font-family:sans-serif;font-variant-ligatures:normal;font-variant-position:normal;font-variant-caps:normal;font-variant-numeric:normal;font-variant-alternates:normal;font-feature-settings:normal;text-indent:0;text-align:start;text-decoration:none;text-decoration-line:none;text-decoration-style:solid;text-decoration-color:#000000;letter-spacing:normal;word-spacing:normal;text-transform:none;writing-mode:lr-tb;direction:ltr;text-orientation:mixed;dominant-baseline:auto;baseline-shift:baseline;text-anchor:start;white-space:normal;shape-padding:0;clip-rule:nonzero;display:inline;overflow:visible;visibility:visible;opacity:1;isolation:auto;mix-blend-mode:normal;color-interpolation:sRGB;color-interpolation-filters:linearRGB;solid-color:#000000;solid-opacity:1;vector-effect:none;fill:#f9f9f9;fill-opacity:1;fill-rule:nonzero;stroke:none;stroke-width:0.42952693;stroke-linecap:round;stroke-linejoin:round;stroke-miterlimit:4;stroke-dasharray:none;stroke-dashoffset:0;stroke-opacity:1;color-rendering:auto;image-rendering:auto;shape-rendering:auto;text-rendering:auto;enable-background:accumulate"
           d="m -13.425781,242.54884 c -1.060811,10e-4 -1.913979,0.95509 -2.0625,2.17187 a 0.26460996,0.26460996 0 0 0 0.160156,0.27539 c 0.282105,0.11714 0.538035,0.33758 0.730469,0.63868 a 0.26460996,0.26460996 0 0 0 0.445312,0 c 0.30535,-0.47876 0.746207,-0.73559 1.199219,-0.73633 0.41479,5.4e-4 0.820413,0.21608 1.123047,0.625 a 0.26460996,0.26460996 0 0 0 0.474609,-0.13086 c 0.01008,-0.0974 0.01672,-0.19475 0.01758,-0.29297 a 0.26460996,0.26460996 0 0 0 0,-0.002 c -1.25e-4,-1.37524 -0.902038,-2.54891 -2.08789,-2.54883 z"
           id="path1652"
           inkscape:connector-curvature="0" />
        <path
           sodipodi:nodetypes="ccccccccc"
           inkscape:connector-curvature="0"
           id="path1789"
           d="m -11.358219,244.74191 c -0.148653,-1.22891 -1.002475,-2.1916 -2.064216,-2.19308 l -2e-6,-1e-5 c -0.09069,0 -0.179271,0.009 -0.266365,0.0224 0.93684,0.14536 1.664837,1.04538 1.80095,2.17064 l -0.354684,0.38114 c 0.18238,0.11298 0.289993,0.26011 0.412458,0.40045 0.189917,0.18992 0.398322,0.16265 0.474609,-0.13086 0.022,-0.16921 0.02581,-0.37627 -0.0028,-0.65068 z"
           style="color:#000000;font-style:normal;font-variant:normal;font-weight:normal;font-stretch:normal;font-size:medium;line-height:normal;font-family:sans-serif;font-variant-ligatures:normal;font-variant-position:normal;font-variant-caps:normal;font-variant-numeric:normal;font-variant-alternates:normal;font-feature-settings:normal;text-indent:0;text-align:start;text-decoration:none;text-decoration-line:none;text-decoration-style:solid;text-decoration-color:#000000;letter-spacing:normal;word-spacing:normal;text-transform:none;writing-mode:lr-tb;direction:ltr;text-orientation:mixed;dominant-baseline:auto;baseline-shift:baseline;text-anchor:start;white-space:normal;shape-padding:0;clip-rule:nonzero;display:inline;overflow:visible;visibility:visible;opacity:1;isolation:auto;mix-blend-mode:normal;color-interpolation:sRGB;color-interpolation-filters:linearRGB;solid-color:#000000;solid-opacity:1;vector-effect:none;fill:#e9e9e9;fill-opacity:1;fill-rule:nonzero;stroke:none;stroke-width:0.42952693;stroke-linecap:round;stroke-linejoin:round;stroke-miterlimit:4;stroke-dasharray:none;stroke-dashoffset:0;stroke-opacity:1;color-rendering:auto;image-rendering:auto;shape-rendering:auto;text-rendering:auto;enable-background:accumulate" />
      </g>
      <g
         id="g1992"
         style="stroke-width:0.81170392">
        <path
           style="color:#000000;font-style:normal;font-variant:normal;font-weight:normal;font-stretch:normal;font-size:medium;line-height:normal;font-family:sans-serif;font-variant-ligatures:normal;font-variant-position:normal;font-variant-caps:normal;font-variant-numeric:normal;font-variant-alternates:normal;font-feature-settings:normal;text-indent:0;text-align:start;text-decoration:none;text-decoration-line:none;text-decoration-style:solid;text-decoration-color:#000000;letter-spacing:normal;word-spacing:normal;text-transform:none;writing-mode:lr-tb;direction:ltr;text-orientation:mixed;dominant-baseline:auto;baseline-shift:baseline;text-anchor:start;white-space:normal;shape-padding:0;clip-rule:nonzero;display:inline;overflow:visible;visibility:visible;opacity:1;isolation:auto;mix-blend-mode:normal;color-interpolation:sRGB;color-interpolation-filters:linearRGB;solid-color:#000000;solid-opacity:1;vector-effect:none;fill:#f9f9f9;fill-opacity:1;fill-rule:nonzero;stroke:none;stroke-width:0.42952693;stroke-linecap:round;stroke-linejoin:round;stroke-miterlimit:4;stroke-dasharray:none;stroke-dashoffset:0;stroke-opacity:1;color-rendering:auto;image-rendering:auto;shape-rendering:auto;text-rendering:auto;enable-background:accumulate"
           d="m -15.794922,244.36914 c -0.678849,-3e-5 -1.273842,0.39741 -1.646484,0.98047 a 0.26460996,0.26460996 0 0 0 0,0.28516 c 0.228843,0.35721 0.358699,0.81281 0.359375,1.2832 -9.7e-5,0.14096 -0.01233,0.28027 -0.03516,0.41797 a 0.26460996,0.26460996 0 0 0 0.261719,0.30859 c 0.707387,4.4e-4 1.413823,-3e-5 2.121094,0 a 0.26460996,0.26460996 0 0 0 0.261719,-0.30859 c -0.02315,-0.13773 -0.03674,-0.27861 -0.03711,-0.41992 4.3e-4,-0.4898 0.138497,-0.9359 0.359375,-1.28125 a 0.26460996,0.26460996 0 0 0 0,-0.28516 c -0.372573,-0.58239 -0.965951,-0.9805 -1.644531,-0.98047 z"
           id="path1670"
           inkscape:connector-curvature="0" />
        <path
           style="color:#000000;font-style:normal;font-variant:normal;font-weight:normal;font-stretch:normal;font-size:medium;line-height:normal;font-family:sans-serif;font-variant-ligatures:normal;font-variant-position:normal;font-variant-caps:normal;font-variant-numeric:normal;font-variant-alternates:normal;font-feature-settings:normal;text-indent:0;text-align:start;text-decoration:none;text-decoration-line:none;text-decoration-style:solid;text-decoration-color:#000000;letter-spacing:normal;word-spacing:normal;text-transform:none;writing-mode:lr-tb;direction:ltr;text-orientation:mixed;dominant-baseline:auto;baseline-shift:baseline;text-anchor:start;white-space:normal;shape-padding:0;clip-rule:nonzero;display:inline;overflow:visible;visibility:visible;opacity:1;isolation:auto;mix-blend-mode:normal;color-interpolation:sRGB;color-interpolation-filters:linearRGB;solid-color:#000000;solid-opacity:1;vector-effect:none;fill:#e9e9e9;fill-opacity:1;fill-rule:nonzero;stroke:none;stroke-width:0.42952693;stroke-linecap:round;stroke-linejoin:round;stroke-miterlimit:4;stroke-dasharray:none;stroke-dashoffset:0;stroke-opacity:1;color-rendering:auto;image-rendering:auto;shape-rendering:auto;text-rendering:auto;enable-background:accumulate"
           d="m -15.794768,244.36911 c -0.08994,-1e-5 -0.177912,0.008 -0.264583,0.0212 0.567016,0.0882 1.056554,0.45389 1.379761,0.95912 a 0.26460995,0.26460995 0 0 1 0,0.28525 c -0.220878,0.34535 -0.358722,0.79177 -0.359152,1.28157 3.71e-4,0.14132 0.01406,0.28189 0.03721,0.41962 a 0.26460995,0.26460995 0 0 1 -0.262,0.3085 c 0.176397,-3e-5 0.352694,0 0.529167,0 a 0.26460995,0.26460995 0 0 0 0.261999,-0.3085 c -0.02315,-0.13773 -0.03684,-0.2783 -0.03721,-0.41962 4.23e-4,-0.4898 0.138273,-0.93622 0.359151,-1.28157 a 0.26460995,0.26460995 0 0 0 0,-0.28525 c -0.372573,-0.58239 -0.965764,-0.98034 -1.644344,-0.98031 z"
           id="path1811"
           inkscape:connector-curvature="0" />
        <path
           style="color:#000000;font-style:normal;font-variant:normal;font-weight:normal;font-stretch:normal;font-size:medium;line-height:normal;font-family:sans-serif;font-variant-ligatures:normal;font-variant-position:normal;font-variant-caps:normal;font-variant-numeric:normal;font-variant-alternates:normal;font-feature-settings:normal;text-indent:0;text-align:start;text-decoration:none;text-decoration-line:none;text-decoration-style:solid;text-decoration-color:#000000;letter-spacing:normal;word-spacing:normal;text-transform:none;writing-mode:lr-tb;direction:ltr;text-orientation:mixed;dominant-baseline:auto;baseline-shift:baseline;text-anchor:start;white-space:normal;shape-padding:0;clip-rule:nonzero;display:inline;overflow:visible;visibility:visible;opacity:1;isolation:auto;mix-blend-mode:normal;color-interpolation:sRGB;color-interpolation-filters:linearRGB;solid-color:#000000;solid-opacity:1;vector-effect:none;fill:#e9e9e9;fill-opacity:1;fill-rule:nonzero;stroke:none;stroke-width:0.42952693;stroke-linecap:round;stroke-linejoin:round;stroke-miterlimit:4;stroke-dasharray:none;stroke-dashoffset:0;stroke-opacity:1;color-rendering:auto;image-rendering:auto;shape-rendering:auto;text-rendering:auto;enable-background:accumulate"
           d="m -17.063041,244.89724 c -0.09597,0.0897 -0.184673,0.18804 -0.265617,0.29507 0.345081,0.45848 0.552364,1.0679 0.552421,1.72548 -9e-5,0.1699 -0.01578,0.33924 -0.04341,0.50591 a 0.26460995,0.26460995 0 0 1 -0.148828,0.19585 0.26460995,0.26460995 0 0 0 0.102319,0.0248 h 0.31626 a 0.26460995,0.26460995 0 0 0 0.259416,-0.22065 c 0.02763,-0.16667 0.04332,-0.33602 0.04341,-0.50592 -7e-5,-0.81094 -0.315345,-1.54916 -0.815971,-2.02055 z"
           id="path1806"
           inkscape:connector-curvature="0" />
      </g>
      <g
         id="g1987"
         style="stroke-width:0.81170392">
        <path
           style="color:#000000;font-style:normal;font-variant:normal;font-weight:normal;font-stretch:normal;font-size:medium;line-height:normal;font-family:sans-serif;font-variant-ligatures:normal;font-variant-position:normal;font-variant-caps:normal;font-variant-numeric:normal;font-variant-alternates:normal;font-feature-settings:normal;text-indent:0;text-align:start;text-decoration:none;text-decoration-line:none;text-decoration-style:solid;text-decoration-color:#000000;letter-spacing:normal;word-spacing:normal;text-transform:none;writing-mode:lr-tb;direction:ltr;text-orientation:mixed;dominant-baseline:auto;baseline-shift:baseline;text-anchor:start;white-space:normal;shape-padding:0;clip-rule:nonzero;display:inline;overflow:visible;visibility:visible;opacity:1;isolation:auto;mix-blend-mode:normal;color-interpolation:sRGB;color-interpolation-filters:linearRGB;solid-color:#000000;solid-opacity:1;vector-effect:none;fill:#ffdea5;fill-opacity:1;fill-rule:nonzero;stroke:none;stroke-width:0.42952693;stroke-linecap:round;stroke-linejoin:round;stroke-miterlimit:4;stroke-dasharray:none;stroke-dashoffset:0;stroke-opacity:1;color-rendering:auto;image-rendering:auto;shape-rendering:auto;text-rendering:auto;enable-background:accumulate"
           d="m -18.640625,244.36914 c -1.185858,-8e-5 -2.087772,1.17359 -2.087891,2.54883 6.64e-4,0.16997 0.01474,0.33925 0.04297,0.50586 a 0.26460996,0.26460996 0 0 0 0.261719,0.2207 h 3.568359 a 0.26460996,0.26460996 0 0 0 0.259766,-0.2207 c 0.02763,-0.16667 0.04288,-0.33596 0.04297,-0.50586 -1.19e-4,-1.37524 -0.902034,-2.54891 -2.087891,-2.54883 z"
           id="path1616"
           inkscape:connector-curvature="0" />
        <path
           style="color:#000000;font-style:normal;font-variant:normal;font-weight:normal;font-stretch:normal;font-size:medium;line-height:normal;font-family:sans-serif;font-variant-ligatures:normal;font-variant-position:normal;font-variant-caps:normal;font-variant-numeric:normal;font-variant-alternates:normal;font-feature-settings:normal;text-indent:0;text-align:start;text-decoration:none;text-decoration-line:none;text-decoration-style:solid;text-decoration-color:#000000;letter-spacing:normal;word-spacing:normal;text-transform:none;writing-mode:lr-tb;direction:ltr;text-orientation:mixed;dominant-baseline:auto;baseline-shift:baseline;text-anchor:start;white-space:normal;shape-padding:0;clip-rule:nonzero;display:inline;overflow:visible;visibility:visible;opacity:1;isolation:auto;mix-blend-mode:normal;color-interpolation:sRGB;color-interpolation-filters:linearRGB;solid-color:#000000;solid-opacity:1;vector-effect:none;fill:#fff4e0;fill-opacity:1;fill-rule:nonzero;stroke:none;stroke-width:0.42952693;stroke-linecap:round;stroke-linejoin:round;stroke-miterlimit:4;stroke-dasharray:none;stroke-dashoffset:0;stroke-opacity:1;color-rendering:auto;image-rendering:auto;shape-rendering:auto;text-rendering:auto;enable-background:accumulate"
           d="m -18.640625,245.19336 c -0.342873,-1e-5 -0.656764,0.1465 -0.878906,0.37891 a 0.2652198,0.2652198 0 1 0 0.382812,0.36718 c 0.129244,-0.13521 0.302821,-0.2168 0.496094,-0.21679 a 0.26465,0.26465 0 1 0 0,-0.5293 z"
           id="path1123"
           inkscape:connector-curvature="0" />
        <path
           style="color:#000000;font-style:normal;font-variant:normal;font-weight:normal;font-stretch:normal;font-size:medium;line-height:normal;font-family:sans-serif;font-variant-ligatures:normal;font-variant-position:normal;font-variant-caps:normal;font-variant-numeric:normal;font-variant-alternates:normal;font-feature-settings:normal;text-indent:0;text-align:start;text-decoration:none;text-decoration-line:none;text-decoration-style:solid;text-decoration-color:#000000;letter-spacing:normal;word-spacing:normal;text-transform:none;writing-mode:lr-tb;direction:ltr;text-orientation:mixed;dominant-baseline:auto;baseline-shift:baseline;text-anchor:start;white-space:normal;shape-padding:0;clip-rule:nonzero;display:inline;overflow:visible;visibility:visible;opacity:1;isolation:auto;mix-blend-mode:normal;color-interpolation:sRGB;color-interpolation-filters:linearRGB;solid-color:#000000;solid-opacity:1;vector-effect:none;fill:#ffc576;fill-opacity:1;fill-rule:nonzero;stroke:none;stroke-width:0.42952693;stroke-linecap:round;stroke-linejoin:round;stroke-miterlimit:4;stroke-dasharray:none;stroke-dashoffset:0;stroke-opacity:1;color-rendering:auto;image-rendering:auto;shape-rendering:auto;text-rendering:auto;enable-background:accumulate"
           d="m -18.640893,244.36927 c -0.09025,0 -0.177893,0.009 -0.264583,0.0222 1.052626,0.15951 1.823551,1.25568 1.823661,2.52646 -9e-5,0.1699 -0.01578,0.33924 -0.04341,0.50591 a 0.26460995,0.26460995 0 0 1 -0.259416,0.22066 h 0.529167 a 0.26460995,0.26460995 0 0 0 0.259416,-0.22066 c 0.02763,-0.16667 0.04332,-0.33601 0.04341,-0.50591 -1.19e-4,-1.37524 -0.902388,-2.54876 -2.088245,-2.54868 z"
           id="path1777"
           inkscape:connector-curvature="0" />
      </g>
      <g
         id="g1997"
         style="stroke-width:0.81170392">
        <path
           style="color:#000000;font-style:normal;font-variant:normal;font-weight:normal;font-stretch:normal;font-size:medium;line-height:normal;font-family:sans-serif;font-variant-ligatures:normal;font-variant-position:normal;font-variant-caps:normal;font-variant-numeric:normal;font-variant-alternates:normal;font-feature-settings:normal;text-indent:0;text-align:start;text-decoration:none;text-decoration-line:none;text-decoration-style:solid;text-decoration-color:#000000;letter-spacing:normal;word-spacing:normal;text-transform:none;writing-mode:lr-tb;direction:ltr;text-orientation:mixed;dominant-baseline:auto;baseline-shift:baseline;text-anchor:start;white-space:normal;shape-padding:0;clip-rule:nonzero;display:inline;overflow:visible;visibility:visible;opacity:1;isolation:auto;mix-blend-mode:normal;color-interpolation:sRGB;color-interpolation-filters:linearRGB;solid-color:#000000;solid-opacity:1;vector-effect:none;fill:#ffdea5;fill-opacity:1;fill-rule:nonzero;stroke:none;stroke-width:0.42952693;stroke-linecap:round;stroke-linejoin:round;stroke-miterlimit:4;stroke-dasharray:none;stroke-dashoffset:0;stroke-opacity:1;color-rendering:auto;image-rendering:auto;shape-rendering:auto;text-rendering:auto;enable-background:accumulate"
           d="m -12.951172,244.36914 c -1.185854,-7e-5 -2.085815,1.1736 -2.085937,2.54883 4.5e-4,0.17019 0.01304,0.33941 0.04101,0.50586 a 0.26460996,0.26460996 0 0 0 0.261719,0.2207 c 1.189578,-2.3e-4 2.378704,0 3.568359,0 a 0.26460996,0.26460996 0 0 0 0.261719,-0.2207 c 0.02763,-0.16666 0.04094,-0.33595 0.04102,-0.50586 -1.23e-4,-1.37523 -0.902037,-2.5489 -2.087891,-2.54883 z"
           id="path1624"
           inkscape:connector-curvature="0" />
        <path
           style="color:#000000;font-style:normal;font-variant:normal;font-weight:normal;font-stretch:normal;font-size:medium;line-height:normal;font-family:sans-serif;font-variant-ligatures:normal;font-variant-position:normal;font-variant-caps:normal;font-variant-numeric:normal;font-variant-alternates:normal;font-feature-settings:normal;text-indent:0;text-align:start;text-decoration:none;text-decoration-line:none;text-decoration-style:solid;text-decoration-color:#000000;letter-spacing:normal;word-spacing:normal;text-transform:none;writing-mode:lr-tb;direction:ltr;text-orientation:mixed;dominant-baseline:auto;baseline-shift:baseline;text-anchor:start;white-space:normal;shape-padding:0;clip-rule:nonzero;display:inline;overflow:visible;visibility:visible;opacity:1;isolation:auto;mix-blend-mode:normal;color-interpolation:sRGB;color-interpolation-filters:linearRGB;solid-color:#000000;solid-opacity:1;vector-effect:none;fill:#fff4e0;fill-opacity:1;fill-rule:nonzero;stroke:none;stroke-width:0.42952693;stroke-linecap:round;stroke-linejoin:round;stroke-miterlimit:4;stroke-dasharray:none;stroke-dashoffset:0;stroke-opacity:1;color-rendering:auto;image-rendering:auto;shape-rendering:auto;text-rendering:auto;enable-background:accumulate"
           d="m -12.912109,245.19336 c -0.342873,-1e-5 -0.656765,0.1465 -0.878907,0.37891 a 0.26522017,0.26522017 0 1 0 0.382813,0.36718 c 0.129242,-0.13521 0.30282,-0.2168 0.496094,-0.21679 a 0.26465,0.26465 0 1 0 0,-0.5293 z"
           id="path1125"
           inkscape:connector-curvature="0" />
        <path
           inkscape:connector-curvature="0"
           id="path1782"
           d="m -12.951527,244.36927 c -0.09025,0 -0.177893,0.009 -0.264583,0.0222 1.052626,0.15951 1.823551,1.25568 1.823661,2.52646 -9e-5,0.1699 -0.01578,0.33924 -0.04341,0.50591 a 0.26460995,0.26460995 0 0 1 -0.259416,0.22066 h 0.529167 a 0.26460995,0.26460995 0 0 0 0.259416,-0.22066 c 0.02763,-0.16667 0.04332,-0.33601 0.04341,-0.50591 -1.19e-4,-1.37524 -0.902388,-2.54876 -2.088245,-2.54868 z"
           style="color:#000000;font-style:normal;font-variant:normal;font-weight:normal;font-stretch:normal;font-size:medium;line-height:normal;font-family:sans-serif;font-variant-ligatures:normal;font-variant-position:normal;font-variant-caps:normal;font-variant-numeric:normal;font-variant-alternates:normal;font-feature-settings:normal;text-indent:0;text-align:start;text-decoration:none;text-decoration-line:none;text-decoration-style:solid;text-decoration-color:#000000;letter-spacing:normal;word-spacing:normal;text-transform:none;writing-mode:lr-tb;direction:ltr;text-orientation:mixed;dominant-baseline:auto;baseline-shift:baseline;text-anchor:start;white-space:normal;shape-padding:0;clip-rule:nonzero;display:inline;overflow:visible;visibility:visible;opacity:1;isolation:auto;mix-blend-mode:normal;color-interpolation:sRGB;color-interpolation-filters:linearRGB;solid-color:#000000;solid-opacity:1;vector-effect:none;fill:#ffc576;fill-opacity:1;fill-rule:nonzero;stroke:none;stroke-width:0.42952693;stroke-linecap:round;stroke-linejoin:round;stroke-miterlimit:4;stroke-dasharray:none;stroke-dashoffset:0;stroke-opacity:1;color-rendering:auto;image-rendering:auto;shape-rendering:auto;text-rendering:auto;enable-background:accumulate" />
      </g>
      <g
         id="g1978"
         style="stroke-width:0.81170392">
        <path
           style="color:#000000;font-style:normal;font-variant:normal;font-weight:normal;font-stretch:normal;font-size:medium;line-height:normal;font-family:sans-serif;font-variant-ligatures:normal;font-variant-position:normal;font-variant-caps:normal;font-variant-numeric:normal;font-variant-alternates:normal;font-feature-settings:normal;text-indent:0;text-align:start;text-decoration:none;text-decoration-line:none;text-decoration-style:solid;text-decoration-color:#000000;letter-spacing:normal;word-spacing:normal;text-transform:none;writing-mode:lr-tb;direction:ltr;text-orientation:mixed;dominant-baseline:auto;baseline-shift:baseline;text-anchor:start;white-space:normal;shape-padding:0;clip-rule:nonzero;display:inline;overflow:visible;visibility:visible;opacity:1;isolation:auto;mix-blend-mode:normal;color-interpolation:sRGB;color-interpolation-filters:linearRGB;solid-color:#000000;solid-opacity:1;vector-effect:none;fill:#ffb74d;fill-opacity:1;fill-rule:nonzero;stroke:none;stroke-width:0.42952693;stroke-linecap:round;stroke-linejoin:round;stroke-miterlimit:4;stroke-dasharray:none;stroke-dashoffset:0;stroke-opacity:1;color-rendering:auto;image-rendering:auto;shape-rendering:auto;text-rendering:auto;enable-background:accumulate"
           d="m -21.154297,247.11523 c -0.325216,0 -0.59375,0.27049 -0.59375,0.59571 v 0.66211 c 0,0.32521 0.268534,0.5957 0.59375,0.5957 h 10.980469 c 0.3252161,0 0.595703,-0.27049 0.595703,-0.5957 v -0.66211 c 0,-0.32522 -0.2704869,-0.59571 -0.595703,-0.59571 z"
           id="path1890"
           inkscape:connector-curvature="0" />
        <path
           style="color:#000000;font-style:normal;font-variant:normal;font-weight:normal;font-stretch:normal;font-size:medium;line-height:normal;font-family:sans-serif;font-variant-ligatures:normal;font-variant-position:normal;font-variant-caps:normal;font-variant-numeric:normal;font-variant-alternates:normal;font-feature-settings:normal;text-indent:0;text-align:start;text-decoration:none;text-decoration-line:none;text-decoration-style:solid;text-decoration-color:#000000;letter-spacing:normal;word-spacing:normal;text-transform:none;writing-mode:lr-tb;direction:ltr;text-orientation:mixed;dominant-baseline:auto;baseline-shift:baseline;text-anchor:start;white-space:normal;shape-padding:0;clip-rule:nonzero;display:inline;overflow:visible;visibility:visible;opacity:1;isolation:auto;mix-blend-mode:normal;color-interpolation:sRGB;color-interpolation-filters:linearRGB;solid-color:#000000;solid-opacity:1;vector-effect:none;fill:#f8a144;fill-opacity:1;fill-rule:nonzero;stroke:none;stroke-width:0.42952693;stroke-linecap:round;stroke-linejoin:round;stroke-miterlimit:4;stroke-dasharray:none;stroke-dashoffset:0;stroke-opacity:1;color-rendering:auto;image-rendering:auto;shape-rendering:auto;text-rendering:auto;enable-background:accumulate"
           d="m -21.154162,247.11518 c -0.325216,0 -0.593762,0.27061 -0.593762,0.59583 v 0.4625 h 10.515637 c 0.325216,0 0.595829,0.27061 0.595829,0.59583 v 0.19947 h 0.462504 c 0.3252158,0 0.595829,-0.27061 0.595829,-0.59582 v -0.66198 c 0,-0.32522 -0.2706132,-0.59583 -0.595829,-0.59583 z"
           id="path1892"
           inkscape:connector-curvature="0" />
        <path
           sodipodi:nodetypes="ccccccccccccccccccccccccccccccccccc"
           style="color:#000000;font-style:normal;font-variant:normal;font-weight:normal;font-stretch:normal;font-size:medium;line-height:normal;font-family:sans-serif;font-variant-ligatures:normal;font-variant-position:normal;font-variant-caps:normal;font-variant-numeric:normal;font-variant-alternates:normal;font-feature-settings:normal;text-indent:0;text-align:start;text-decoration:none;text-decoration-line:none;text-decoration-style:solid;text-decoration-color:#000000;letter-spacing:normal;word-spacing:normal;text-transform:none;writing-mode:lr-tb;direction:ltr;text-orientation:mixed;dominant-baseline:auto;baseline-shift:baseline;text-anchor:start;white-space:normal;shape-padding:0;clip-rule:nonzero;display:inline;overflow:visible;visibility:visible;opacity:1;isolation:auto;mix-blend-mode:normal;color-interpolation:sRGB;color-interpolation-filters:linearRGB;solid-color:#000000;solid-opacity:1;vector-effect:none;fill:#d37c2c;fill-opacity:1;fill-rule:nonzero;stroke:none;stroke-width:1.62340879;stroke-linecap:round;stroke-linejoin:round;stroke-miterlimit:4;stroke-dasharray:none;stroke-dashoffset:0;stroke-opacity:1;color-rendering:auto;image-rendering:auto;shape-rendering:auto;text-rendering:auto;enable-background:accumulate"
           d="m -77.199219,-138.53511 v 2.9961 h 2 v -2.9961 z m 5.667969,0 v 2.9961 h 2.001953 v -2.9961 z m 5.662109,0 v 2.9961 h 2.001953 v -2.9961 z m 5.669922,0 v 2.9961 h 2 v -2.9961 z m 5.669922,0 v 2.9961 h 1.992188 v -2.9961 z m 5.662109,0 v 2.9961 h 2 v -2.9961 z m 5.667969,0 v 2.9961 h 2 v -2.9961 z"
           transform="matrix(0.26458333,0,0,0.26458333,0,284.3)"
           id="path1026"
           inkscape:connector-curvature="0" />
      </g>
    </g>
  </g>
</svg>
